G75*
G70*
%OFA0B0*%
%FSLAX24Y24*%
%IPPOS*%
%LPD*%
%AMOC8*
5,1,8,0,0,1.08239X$1,22.5*
%
%ADD10C,0.0060*%
%ADD11C,0.0080*%
%ADD12R,0.0380X0.0660*%
%ADD13R,0.0200X0.0736*%
%ADD14R,0.0250X0.0335*%
%ADD15R,0.1000X0.0200*%
%ADD16C,0.0120*%
%ADD17R,0.0200X0.0300*%
%ADD18C,0.0040*%
%ADD19C,0.0240*%
%ADD20R,0.0200X0.1200*%
%ADD21R,0.0350X0.0300*%
D10*
X004559Y001301D02*
X011709Y001301D01*
X012009Y001301D01*
X012559Y001301D01*
X012559Y004601D01*
X012509Y004651D01*
X012059Y004651D01*
X012009Y004601D01*
X011709Y004601D01*
X011659Y004651D01*
X004609Y004651D01*
X004559Y004601D01*
X004559Y001301D01*
X004659Y001201D01*
X011609Y001201D01*
X011709Y001301D01*
X011709Y001401D01*
X011709Y004551D01*
X011709Y004581D01*
X012009Y004581D01*
X012009Y004551D01*
X011709Y004551D01*
X011709Y004581D02*
X011709Y004601D01*
X011659Y004651D02*
X011609Y004701D01*
X011609Y004681D01*
X004659Y004681D01*
X004659Y004701D02*
X004609Y004651D01*
X004659Y004701D02*
X011609Y004701D01*
X012009Y004601D02*
X012009Y004581D01*
X012009Y004551D02*
X012009Y001401D01*
X011709Y001401D01*
X012009Y001401D02*
X012009Y001301D01*
X012109Y001201D01*
X012459Y001201D01*
X012559Y001301D01*
X011359Y002451D02*
X011359Y002751D01*
X011509Y002601D02*
X011209Y002601D01*
X011059Y002351D02*
X010859Y002351D01*
X010859Y003551D01*
X011059Y003551D01*
X011059Y002951D01*
X011509Y002951D01*
X011059Y002951D02*
X011059Y002351D01*
X010509Y002951D02*
X004759Y002951D01*
X004765Y004856D02*
X005265Y004856D01*
X005515Y005106D01*
X005765Y004856D01*
X006265Y004856D01*
X006515Y005106D01*
X006515Y005606D01*
X006265Y005856D01*
X005765Y005856D01*
X005515Y005606D01*
X005515Y005106D01*
X005515Y005606D02*
X005265Y005856D01*
X004765Y005856D01*
X004515Y005606D01*
X004515Y005106D01*
X004765Y004856D01*
X004202Y006925D02*
X002402Y006925D01*
X002352Y006975D01*
X002302Y007025D01*
X002302Y010825D01*
X002322Y010825D01*
X002322Y007025D01*
X002352Y006975D02*
X002352Y010875D01*
X002302Y010825D01*
X002352Y010875D02*
X002402Y010925D01*
X002422Y010925D01*
X002422Y011075D01*
X002402Y011075D01*
X002352Y011125D01*
X002352Y011375D01*
X002302Y011325D01*
X002322Y011325D01*
X002322Y011175D01*
X002302Y011175D02*
X002302Y011325D01*
X002352Y011375D02*
X002402Y011425D01*
X004202Y011425D01*
X004202Y011075D01*
X004202Y010925D01*
X004202Y006925D01*
X004302Y007025D01*
X004302Y010825D01*
X004202Y010925D01*
X004102Y010925D01*
X002452Y010925D01*
X002452Y011075D01*
X002422Y011075D01*
X002402Y011075D02*
X002402Y010925D01*
X002422Y010925D02*
X002452Y010925D01*
X002452Y011075D02*
X004102Y011075D01*
X004102Y010925D01*
X004102Y011075D02*
X004202Y011075D01*
X004302Y011175D01*
X004302Y011325D01*
X004202Y011425D01*
X003652Y010775D02*
X003652Y010575D01*
X003752Y010675D02*
X003552Y010675D01*
X003302Y010775D02*
X003302Y010425D01*
X003802Y010425D01*
X003802Y010225D01*
X002802Y010225D01*
X002802Y010425D01*
X003302Y010425D01*
X003302Y009925D02*
X003302Y007125D01*
X001622Y007805D02*
X001622Y008019D01*
X001622Y007912D02*
X000982Y007912D01*
X000982Y007805D02*
X000982Y008019D01*
X000982Y008235D02*
X001622Y008662D01*
X000982Y008662D01*
X000982Y008235D02*
X001622Y008235D01*
X000909Y007826D02*
X000482Y007826D01*
X000696Y008039D02*
X000696Y007612D01*
X002352Y011125D02*
X002302Y011175D01*
X008483Y005537D02*
X008483Y004813D01*
X010122Y004813D01*
X010122Y005537D01*
X008483Y005537D01*
X008702Y005175D02*
X009302Y005175D01*
X009302Y005425D01*
X009302Y005175D02*
X009302Y004925D01*
X009302Y005175D02*
X008902Y004925D01*
X008902Y005425D01*
X009302Y005175D01*
X009552Y005175D01*
X012059Y004651D02*
X012109Y004701D01*
X012109Y004681D01*
X012459Y004681D01*
X012459Y004701D02*
X012509Y004651D01*
X012459Y004701D02*
X012109Y004701D01*
X015482Y008062D02*
X015589Y007955D01*
X016016Y007955D01*
X016122Y008062D01*
X016122Y008276D01*
X016016Y008382D01*
X015589Y008382D01*
X015482Y008276D01*
X015482Y008062D01*
X015482Y008600D02*
X016016Y008600D01*
X016122Y008707D01*
X016122Y008920D01*
X016016Y009027D01*
X015482Y009027D01*
X015482Y009244D02*
X015482Y009671D01*
X015482Y009458D02*
X016122Y009458D01*
X016346Y008039D02*
X016346Y007612D01*
X016559Y007826D02*
X016132Y007826D01*
X013552Y011675D02*
X013052Y011675D01*
X012802Y011925D01*
X012802Y012425D01*
X013052Y012675D01*
X013552Y012675D01*
X013802Y012425D01*
X013802Y011925D01*
X013552Y011675D01*
D11*
X009808Y009041D02*
X005797Y009041D01*
D12*
X006462Y008745D03*
X007132Y008745D03*
X007802Y008745D03*
X008472Y008745D03*
X009142Y008745D03*
D13*
X009852Y005181D03*
D14*
X010247Y005175D03*
X008358Y005175D03*
D15*
X003302Y009975D03*
D16*
X004252Y010825D02*
X004252Y007025D01*
X004152Y010975D02*
X004152Y011025D01*
X004252Y011175D02*
X004252Y011325D01*
X011759Y001351D02*
X011959Y001351D01*
X012109Y001251D02*
X012459Y001251D01*
X011609Y001251D02*
X004659Y001251D01*
D17*
X003302Y006775D03*
X003302Y011575D03*
D18*
X011877Y008156D02*
X011879Y008200D01*
X011885Y008244D01*
X011895Y008287D01*
X011908Y008329D01*
X011925Y008370D01*
X011946Y008409D01*
X011970Y008446D01*
X011997Y008481D01*
X012027Y008513D01*
X012060Y008543D01*
X012096Y008569D01*
X012133Y008593D01*
X012173Y008612D01*
X012214Y008629D01*
X012257Y008641D01*
X012300Y008650D01*
X012344Y008655D01*
X012388Y008656D01*
X012432Y008653D01*
X012476Y008646D01*
X012519Y008635D01*
X012561Y008621D01*
X012601Y008603D01*
X012640Y008581D01*
X012676Y008557D01*
X012710Y008529D01*
X012742Y008498D01*
X012771Y008464D01*
X012797Y008428D01*
X012819Y008390D01*
X012838Y008350D01*
X012853Y008308D01*
X012865Y008266D01*
X012873Y008222D01*
X012877Y008178D01*
X012877Y008134D01*
X012873Y008090D01*
X012865Y008046D01*
X012853Y008004D01*
X012838Y007962D01*
X012819Y007922D01*
X012797Y007884D01*
X012771Y007848D01*
X012742Y007814D01*
X012710Y007783D01*
X012676Y007755D01*
X012640Y007731D01*
X012601Y007709D01*
X012561Y007691D01*
X012519Y007677D01*
X012476Y007666D01*
X012432Y007659D01*
X012388Y007656D01*
X012344Y007657D01*
X012300Y007662D01*
X012257Y007671D01*
X012214Y007683D01*
X012173Y007700D01*
X012133Y007719D01*
X012096Y007743D01*
X012060Y007769D01*
X012027Y007799D01*
X011997Y007831D01*
X011970Y007866D01*
X011946Y007903D01*
X011925Y007942D01*
X011908Y007983D01*
X011895Y008025D01*
X011885Y008068D01*
X011879Y008112D01*
X011877Y008156D01*
D19*
X013077Y008156D02*
X013677Y008156D01*
D20*
X010559Y002951D03*
D21*
X004384Y002951D03*
X012734Y002951D03*
M02*
