G75*
G70*
%OFA0B0*%
%FSLAX24Y24*%
%IPPOS*%
%LPD*%
%AMOC8*
5,1,8,0,0,1.08239X$1,22.5*
%
%ADD10C,0.0084*%
%ADD11C,0.0080*%
%ADD12C,0.0081*%
%ADD13C,0.0749*%
%ADD14C,0.0930*%
%ADD15OC8,0.0930*%
%ADD16OC8,0.0600*%
%ADD17C,0.1320*%
%ADD18OC8,0.1320*%
%ADD19C,0.0680*%
%ADD20OC8,0.1720*%
%ADD21OC8,0.0680*%
%ADD22C,0.1380*%
%ADD23R,0.0476X0.0476*%
D10*
X005678Y009128D02*
X009926Y009128D01*
X005678Y009128D02*
X005678Y013222D01*
X009926Y013222D01*
X009926Y009128D01*
X009926Y009211D02*
X005678Y009211D01*
X005678Y009294D02*
X009926Y009294D01*
X009926Y009377D02*
X005678Y009377D01*
X005678Y009460D02*
X009926Y009460D01*
X009926Y009543D02*
X005678Y009543D01*
X005678Y009626D02*
X009926Y009626D01*
X009926Y009709D02*
X005678Y009709D01*
X005678Y009792D02*
X009926Y009792D01*
X009926Y009875D02*
X005678Y009875D01*
X005678Y009958D02*
X009926Y009958D01*
X009926Y010041D02*
X005678Y010041D01*
X005678Y010124D02*
X009926Y010124D01*
X009926Y010207D02*
X005678Y010207D01*
X005678Y010290D02*
X009926Y010290D01*
X009926Y010373D02*
X005678Y010373D01*
X005678Y010456D02*
X009926Y010456D01*
X009926Y010539D02*
X005678Y010539D01*
X005678Y010622D02*
X009926Y010622D01*
X009926Y010705D02*
X005678Y010705D01*
X005678Y010788D02*
X009926Y010788D01*
X009926Y010871D02*
X005678Y010871D01*
X005678Y010954D02*
X009926Y010954D01*
X009926Y011037D02*
X005678Y011037D01*
X005678Y011120D02*
X009926Y011120D01*
X009926Y011203D02*
X005678Y011203D01*
X005678Y011286D02*
X009926Y011286D01*
X009926Y011369D02*
X005678Y011369D01*
X005678Y011452D02*
X009926Y011452D01*
X009926Y011535D02*
X005678Y011535D01*
X005678Y011618D02*
X009926Y011618D01*
X009926Y011701D02*
X005678Y011701D01*
X005678Y011784D02*
X009926Y011784D01*
X009926Y011867D02*
X005678Y011867D01*
X005678Y011950D02*
X009926Y011950D01*
X009926Y012033D02*
X005678Y012033D01*
X005678Y012116D02*
X009926Y012116D01*
X009926Y012199D02*
X005678Y012199D01*
X005678Y012282D02*
X009926Y012282D01*
X009926Y012365D02*
X005678Y012365D01*
X005678Y012448D02*
X009926Y012448D01*
X009926Y012531D02*
X005678Y012531D01*
X005678Y012614D02*
X009926Y012614D01*
X009926Y012697D02*
X005678Y012697D01*
X005678Y012780D02*
X009926Y012780D01*
X009926Y012863D02*
X005678Y012863D01*
X005678Y012946D02*
X009926Y012946D01*
X009926Y013029D02*
X005678Y013029D01*
X005678Y013112D02*
X009926Y013112D01*
X009926Y013195D02*
X005678Y013195D01*
D11*
X006252Y007470D02*
X006672Y007470D01*
X006252Y007470D02*
X006252Y008320D01*
X006672Y008320D01*
X006672Y007470D01*
X006672Y007549D02*
X006252Y007549D01*
X006252Y007628D02*
X006672Y007628D01*
X006672Y007707D02*
X006252Y007707D01*
X006252Y007786D02*
X006672Y007786D01*
X006672Y007865D02*
X006252Y007865D01*
X006252Y007944D02*
X006672Y007944D01*
X006672Y008023D02*
X006252Y008023D01*
X006252Y008102D02*
X006672Y008102D01*
X006672Y008181D02*
X006252Y008181D01*
X006252Y008260D02*
X006672Y008260D01*
X006922Y007470D02*
X007342Y007470D01*
X006922Y007470D02*
X006922Y008320D01*
X007342Y008320D01*
X007342Y007470D01*
X007342Y007549D02*
X006922Y007549D01*
X006922Y007628D02*
X007342Y007628D01*
X007342Y007707D02*
X006922Y007707D01*
X006922Y007786D02*
X007342Y007786D01*
X007342Y007865D02*
X006922Y007865D01*
X006922Y007944D02*
X007342Y007944D01*
X007342Y008023D02*
X006922Y008023D01*
X006922Y008102D02*
X007342Y008102D01*
X007342Y008181D02*
X006922Y008181D01*
X006922Y008260D02*
X007342Y008260D01*
X007592Y007470D02*
X008012Y007470D01*
X007592Y007470D02*
X007592Y008320D01*
X008012Y008320D01*
X008012Y007470D01*
X008012Y007549D02*
X007592Y007549D01*
X007592Y007628D02*
X008012Y007628D01*
X008012Y007707D02*
X007592Y007707D01*
X007592Y007786D02*
X008012Y007786D01*
X008012Y007865D02*
X007592Y007865D01*
X007592Y007944D02*
X008012Y007944D01*
X008012Y008023D02*
X007592Y008023D01*
X007592Y008102D02*
X008012Y008102D01*
X008012Y008181D02*
X007592Y008181D01*
X007592Y008260D02*
X008012Y008260D01*
X008262Y007470D02*
X008682Y007470D01*
X008262Y007470D02*
X008262Y008320D01*
X008682Y008320D01*
X008682Y007470D01*
X008682Y007549D02*
X008262Y007549D01*
X008262Y007628D02*
X008682Y007628D01*
X008682Y007707D02*
X008262Y007707D01*
X008262Y007786D02*
X008682Y007786D01*
X008682Y007865D02*
X008262Y007865D01*
X008262Y007944D02*
X008682Y007944D01*
X008682Y008023D02*
X008262Y008023D01*
X008262Y008102D02*
X008682Y008102D01*
X008682Y008181D02*
X008262Y008181D01*
X008262Y008260D02*
X008682Y008260D01*
X008932Y007470D02*
X009352Y007470D01*
X008932Y007470D02*
X008932Y008320D01*
X009352Y008320D01*
X009352Y007470D01*
X009352Y007549D02*
X008932Y007549D01*
X008932Y007628D02*
X009352Y007628D01*
X009352Y007707D02*
X008932Y007707D01*
X008932Y007786D02*
X009352Y007786D01*
X009352Y007865D02*
X008932Y007865D01*
X008932Y007944D02*
X009352Y007944D01*
X009352Y008023D02*
X008932Y008023D01*
X008932Y008102D02*
X009352Y008102D01*
X009352Y008181D02*
X008932Y008181D01*
X008932Y008260D02*
X009352Y008260D01*
D12*
X012018Y009644D02*
X012018Y010038D01*
X012018Y009644D02*
X011586Y009644D01*
X011586Y010038D01*
X012018Y010038D01*
X012018Y009724D02*
X011586Y009724D01*
X011586Y009804D02*
X012018Y009804D01*
X012018Y009884D02*
X011586Y009884D01*
X011586Y009964D02*
X012018Y009964D01*
X012018Y010313D02*
X012018Y010707D01*
X012018Y010313D02*
X011586Y010313D01*
X011586Y010707D01*
X012018Y010707D01*
X012018Y010393D02*
X011586Y010393D01*
X011586Y010473D02*
X012018Y010473D01*
X012018Y010553D02*
X011586Y010553D01*
X011586Y010633D02*
X012018Y010633D01*
X011586Y011644D02*
X011586Y012038D01*
X012018Y012038D01*
X012018Y011644D01*
X011586Y011644D01*
X011586Y011724D02*
X012018Y011724D01*
X012018Y011804D02*
X011586Y011804D01*
X011586Y011884D02*
X012018Y011884D01*
X012018Y011964D02*
X011586Y011964D01*
X011586Y012313D02*
X011586Y012707D01*
X012018Y012707D01*
X012018Y012313D01*
X011586Y012313D01*
X011586Y012393D02*
X012018Y012393D01*
X012018Y012473D02*
X011586Y012473D01*
X011586Y012553D02*
X012018Y012553D01*
X012018Y012633D02*
X011586Y012633D01*
X005909Y007179D02*
X005515Y007179D01*
X005909Y007179D02*
X005909Y006747D01*
X005515Y006747D01*
X005515Y007179D01*
X005515Y006827D02*
X005909Y006827D01*
X005909Y006907D02*
X005515Y006907D01*
X005515Y006987D02*
X005909Y006987D01*
X005909Y007067D02*
X005515Y007067D01*
X005515Y007147D02*
X005909Y007147D01*
X005240Y007179D02*
X004846Y007179D01*
X005240Y007179D02*
X005240Y006747D01*
X004846Y006747D01*
X004846Y007179D01*
X004846Y006827D02*
X005240Y006827D01*
X005240Y006907D02*
X004846Y006907D01*
X004846Y006987D02*
X005240Y006987D01*
X005240Y007067D02*
X004846Y007067D01*
X004846Y007147D02*
X005240Y007147D01*
D13*
X007802Y005175D03*
X010802Y005175D03*
D14*
X003302Y012175D03*
D15*
X003302Y006175D03*
D16*
X012377Y008156D03*
X014377Y008156D03*
D17*
X013559Y002951D03*
D18*
X003559Y002951D03*
D19*
X005015Y005056D02*
X005015Y005656D01*
X006015Y005656D02*
X006015Y005056D01*
D20*
X001302Y004675D03*
X001302Y006675D03*
X015802Y006675D03*
X015802Y004675D03*
D21*
X013302Y012175D03*
D22*
X001802Y002175D03*
X001802Y012175D03*
X015302Y012175D03*
X015302Y002175D03*
D23*
X012152Y004225D03*
X009802Y007675D03*
X006302Y006675D03*
X005802Y008175D03*
M02*
